<?xml version="1.0" standalone="no"?>
<!DOCTYPE svg PUBLIC "-//W3C//DTD SVG 20010904//EN"
 "http://www.w3.org/TR/2001/REC-SVG-20010904/DTD/svg10.dtd">
<svg version="1.0" xmlns="http://www.w3.org/2000/svg"
 width="1320.000000pt" height="1098.000000pt" viewBox="0 0 1320.000000 1098.000000"
 preserveAspectRatio="xMidYMid meet">
<metadata>
Created by potrace 1.16, written by Peter Selinger 2001-2019
</metadata>
<g transform="translate(0.000000,1098.000000) scale(0.100000,-0.100000)"
fill="#000000" stroke="none">
<path d="M6237 10896 c-19 -28 -51 -226 -43 -265 3 -14 8 -363 11 -776 3 -422
10 -765 15 -785 12 -43 65 -97 108 -109 42 -12 88 1 125 36 64 61 60 9 53 873
-7 782 -14 958 -42 1012 -16 31 -42 47 -53 32 -3 -5 -29 -9 -58 -10 -29 0 -59
-6 -66 -13 -12 -9 -15 -8 -13 5 2 27 -20 27 -37 0z"/>
<path d="M10975 9332 c-22 -20 -77 -77 -123 -126 -64 -68 -80 -91 -70 -98 10
-8 9 -9 -4 -5 -18 6 -52 -25 -41 -38 5 -4 3 -5 -3 -2 -15 9 -168 -149 -159
-164 5 -7 4 -10 -2 -6 -13 8 -36 -17 -25 -27 4 -4 2 -6 -4 -4 -15 4 -289 -281
-288 -298 1 -8 -2 -11 -7 -9 -10 7 -65 -54 -61 -67 1 -5 -1 -7 -6 -4 -5 3 -56
-45 -113 -106 -57 -61 -119 -124 -137 -141 -56 -53 -69 -84 -77 -184 -5 -77
-4 -98 11 -129 26 -54 67 -76 135 -72 69 5 93 22 229 170 99 108 380 406 465
493 213 218 505 534 524 566 23 39 24 44 14 143 -7 75 -14 107 -28 124 -23 26
-35 28 -35 7 0 -10 -10 -15 -31 -15 -19 0 -28 4 -24 11 5 7 -7 8 -40 3 -31 -4
-50 -3 -54 4 -4 7 -22 -3 -46 -26z"/>
<path d="M1970 9215 c-29 -31 -48 -186 -29 -242 12 -38 107 -139 796 -854 231
-239 406 -413 427 -423 64 -30 131 -14 180 44 28 34 28 34 21 144 -3 68 -11
119 -20 131 -7 11 -47 55 -89 99 -68 71 -77 77 -93 65 -16 -13 -17 -12 -5 3
14 18 7 43 -9 32 -5 -3 -8 -2 -7 3 5 14 -39 63 -57 63 -9 0 -14 4 -11 8 7 12
-69 84 -79 75 -4 -5 -5 -3 -1 4 4 7 -5 25 -21 42 -306 319 -379 391 -395 385
-18 -5 -26 11 -9 18 5 2 -22 36 -59 77 -63 68 -70 73 -87 60 -16 -13 -17 -13
-4 4 12 15 11 20 -4 37 -13 14 -22 17 -29 10 -5 -5 -19 -10 -30 -9 -20 0 -20
1 2 9 12 5 22 13 22 18 0 16 -143 151 -153 145 -6 -3 -7 -1 -3 6 10 16 -13 43
-31 37 -7 -3 -13 2 -14 12 0 9 -3 12 -5 5 -6 -13 -136 -7 -165 8 -11 6 -23 1
-39 -16z"/>
<path d="M6983 8353 c-419 -461 -2403 -2699 -2400 -2707 2 -6 26 -12 53 -14
88 -6 788 39 806 51 10 7 254 278 543 602 289 325 531 590 538 590 9 0 20
-137 44 -555 24 -407 36 -558 46 -567 11 -11 63 -11 293 2 153 9 289 18 302
21 21 4 22 9 21 82 -1 184 -145 2562 -155 2572 -8 8 -33 -13 -91 -77z"/>
<path d="M55 5780 c-23 -24 -29 -40 -32 -87 -2 -32 -6 -76 -9 -98 -4 -32 -1
-47 18 -75 39 -57 82 -80 152 -81 34 0 140 -2 236 -4 96 -1 443 -3 771 -5 645
-2 625 -4 675 52 39 42 46 66 39 136 -10 108 -14 127 -36 150 -19 21 -56 32
-44 13 3 -5 1 -12 -4 -15 -11 -7 -42 4 -37 13 7 10 -93 12 -129 2 -19 -5 -35
-6 -35 -3 0 4 -98 7 -218 7 -119 0 -269 2 -332 5 -63 3 -119 3 -125 -1 -5 -4
-39 -3 -75 1 -36 5 -72 4 -81 -1 -11 -6 -19 -5 -21 2 -2 7 -22 7 -65 0 -42 -6
-84 -6 -133 1 -59 9 -74 8 -81 -3 -6 -11 -15 -11 -41 -3 -31 10 -207 11 -310
1 -37 -4 -45 -2 -41 9 9 23 -12 16 -42 -16z"/>
<path d="M11221 5774 c-19 -25 -28 -58 -30 -114 0 -14 -3 -43 -6 -65 -5 -32
-2 -47 17 -75 39 -57 82 -80 152 -81 34 0 140 -2 236 -4 96 -1 443 -3 771 -5
526 -2 599 0 626 14 36 18 81 69 88 99 9 36 -13 194 -31 222 -18 27 -44 34
-44 11 0 -20 -22 -25 -38 -9 -8 7 -36 13 -65 13 -29 0 -59 4 -67 10 -8 5 -19
5 -25 1 -8 -7 -310 -7 -390 -1 -18 2 -419 2 -520 1 -41 0 -114 0 -418 3 -97 0
-177 -2 -177 -6 0 -5 -7 -8 -15 -8 -8 0 -15 5 -15 10 0 19 -29 10 -49 -16z"/>
<path d="M5190 5220 c0 -5 9 -10 20 -10 18 0 19 -8 19 -115 0 -77 -3 -115 -11
-115 -7 0 -6 -6 3 -16 10 -13 10 -17 0 -24 -10 -6 -10 -9 -1 -15 9 -6 9 -10
-1 -16 -9 -6 -10 -9 -2 -9 14 0 13 -42 -2 -53 -7 -6 -6 -10 3 -14 19 -8 14
-21 -10 -26 -21 -4 -22 -4 -2 -6 20 -1 21 -6 21 -166 0 -115 -3 -165 -11 -165
-6 0 -5 -4 3 -9 13 -8 13 -12 1 -26 -14 -17 -45 -17 -99 1 -14 4 -22 3 -19 -2
4 -5 -55 -8 -140 -7 -162 1 -466 3 -497 3 -11 0 -72 0 -135 0 -63 0 -143 -1
-177 -4 l-63 -3 0 89 c0 52 6 102 14 121 19 47 69 93 113 105 31 8 33 10 12
11 -41 2 -113 -51 -138 -101 -18 -38 -21 -62 -21 -161 l0 -117 590 0 590 0 0
430 0 430 -30 0 c-16 0 -30 -4 -30 -10z"/>
<path d="M6710 4800 l0 -430 395 0 395 0 0 -475 0 -475 195 0 196 0 -3 603 -3
602 -23 38 c-26 41 -96 87 -133 87 -20 0 -18 -3 14 -18 l39 -17 -141 0 c-78 0
-141 2 -141 5 0 3 -79 4 -175 2 -108 -2 -181 1 -192 7 -16 9 -14 10 10 11 16
0 26 4 22 10 -3 6 -19 10 -36 10 l-29 0 0 235 0 236 -35 -3 c-39 -2 -48 -17
-12 -19 15 -1 11 -4 -13 -9 -48 -12 -278 -11 -285 0 -4 6 -1 10 4 10 6 0 11 5
11 10 0 6 -13 10 -30 10 l-30 0 0 -430z"/>
<path d="M2862 4565 l-133 -195 592 0 591 0 -3 128 c-4 120 -6 131 -31 170
-16 23 -43 49 -60 58 -36 19 -110 36 -103 24 3 -4 22 -10 44 -14 60 -9 116
-78 126 -152 5 -43 3 -59 -7 -65 -9 -6 -9 -9 -1 -9 8 0 11 -14 10 -37 l-2 -38
-70 -7 c-42 -4 -74 -3 -81 3 -8 7 -15 6 -19 -1 -7 -12 -47 -9 -94 6 -14 4 -22
3 -19 -2 4 -5 -55 -8 -140 -7 -81 0 -221 2 -312 2 -91 1 -174 1 -185 1 -71 1
-114 -2 -143 -10 -44 -12 -45 -13 78 170 99 147 102 150 138 151 30 0 33 2 17
9 -51 22 -56 17 -193 -185z"/>
<path d="M8210 4750 c-56 -10 -98 -37 -128 -82 -25 -39 -27 -49 -30 -170 l-4
-128 592 0 592 0 -3 128 c-4 120 -6 131 -32 170 -33 51 -91 82 -149 81 l-43
-2 47 -6 c77 -11 83 -30 10 -28 -34 1 -62 4 -62 7 0 3 -30 4 -67 3 -57 -2
-677 -5 -737 -3 -33 0 -5 18 34 22 19 2 31 6 25 9 -5 3 -26 3 -45 -1z"/>
<path d="M10250 4750 c0 -5 9 -10 21 -10 11 0 17 -4 14 -10 -4 -6 -143 -10
-385 -10 -246 0 -381 -4 -385 -10 -4 -6 -11 -7 -17 -4 -5 4 3 15 19 25 37 25
12 24 -37 -1 -22 -11 -52 -39 -67 -62 -26 -39 -28 -49 -31 -170 l-4 -128 591
0 590 0 -101 148 c-55 81 -114 168 -132 194 -21 33 -38 48 -53 48 -13 0 -23
-4 -23 -10z"/>
<path d="M5410 4205 l0 -195 570 0 570 0 0 195 0 195 -29 0 c-17 0 -33 -4 -36
-10 -3 -5 1 -10 10 -10 9 0 14 -4 11 -9 -8 -13 -1043 -14 -1051 -1 -4 6 6 10
22 11 l28 1 -25 8 c-14 4 -35 8 -47 9 l-23 1 0 -195z"/>
<path d="M3130 4281 c0 -6 8 -11 18 -11 11 0 54 -55 125 -161 99 -146 123
-193 83 -160 -19 16 -252 9 -269 -8 -8 -8 -5 -11 14 -12 l24 0 -22 -11 c-25
-12 -29 -23 -13 -33 6 -3 10 -22 10 -40 0 -24 6 -38 19 -45 25 -13 61 -13 61
0 0 6 -13 10 -30 10 -29 0 -30 2 -30 45 l0 45 155 0 c85 0 155 3 155 8 -1 4
-58 90 -128 192 -93 136 -133 186 -149 188 -13 2 -23 -1 -23 -7z"/>
<path d="M3800 4278 c0 -5 20 -8 44 -8 l45 0 -1 -140 c-1 -118 -3 -142 -17
-150 -14 -8 -14 -9 0 -10 23 0 24 -117 0 -123 -14 -4 -14 -5 2 -6 9 0 17 -6
17 -12 0 -7 -8 -18 -17 -25 -17 -13 -17 -13 0 -14 13 0 17 -9 17 -43 0 -24 -5
-48 -12 -55 -9 -9 -9 -12 -1 -12 8 0 11 -30 11 -94 l-1 -94 -36 -8 c-20 -4
-65 -6 -101 -4 -121 6 -225 5 -252 -2 -17 -4 -28 -3 -28 4 0 6 -10 8 -22 5
-13 -4 -129 -6 -258 -6 -129 0 -252 -1 -273 -1 -21 -1 -44 6 -53 15 -8 8 -24
15 -35 15 -11 0 -18 4 -15 9 3 4 -4 17 -15 27 l-20 18 23 13 23 13 -25 -2
c-14 -2 -27 2 -28 7 -2 6 -7 15 -11 20 -15 21 -11 64 7 68 14 4 14 5 1 6 -14
1 -16 16 -17 98 -1 57 3 102 9 110 8 9 8 13 0 13 -6 0 -11 11 -11 25 0 14 5
25 10 25 6 0 10 5 10 11 0 5 -4 7 -10 4 -6 -3 -8 29 -7 87 2 79 6 98 26 128
33 49 65 71 119 80 l47 8 -41 1 c-57 1 -125 -43 -153 -101 -20 -42 -21 -58
-21 -325 0 -274 1 -281 23 -324 13 -24 43 -57 66 -74 l43 -30 524 -3 524 -3 0
436 0 435 -55 -2 c-30 -2 -55 -6 -55 -10z"/>
<path d="M4070 3927 c0 -346 0 -354 23 -397 13 -26 40 -57 65 -75 l44 -30 524
-3 524 -3 0 431 0 430 -27 -1 c-16 -1 -21 -3 -12 -6 14 -3 16 -33 17 -243 1
-174 -2 -240 -11 -240 -8 0 -8 -3 1 -12 16 -16 16 -78 0 -78 -10 0 -10 -2 -1
-8 17 -11 17 -202 0 -203 -6 -1 -60 -3 -119 -4 -58 -1 -111 -6 -117 -9 -6 -4
-11 -2 -11 4 0 8 -9 10 -22 7 -13 -4 -126 -6 -253 -7 -428 -1 -523 3 -494 20
7 5 0 10 -20 15 -22 5 -31 11 -27 20 3 8 -4 17 -15 20 -13 4 -18 12 -15 22 4
9 -1 17 -14 20 -19 5 -21 12 -19 84 2 47 7 79 13 79 7 0 6 4 -1 8 -16 10 -15
102 1 102 8 0 8 2 0 8 -15 10 -16 174 -1 184 9 6 9 8 1 8 -8 0 -12 32 -13 99
-1 96 -1 100 21 104 17 3 14 5 -9 6 l-33 1 0 -353z"/>
<path d="M6710 3850 l0 -430 195 0 195 0 0 430 0 430 -32 0 c-24 0 -29 -3 -18
-10 30 -19 -6 -25 -146 -24 -144 2 -172 7 -144 24 11 7 6 10 -17 10 l-33 0 0
-430z"/>
<path d="M8050 3927 c0 -346 0 -354 23 -397 13 -26 40 -57 65 -75 l44 -30 456
0 457 0 38 24 c21 13 50 42 65 64 l27 40 3 364 3 363 -33 0 c-25 0 -29 -3 -18
-10 31 -20 -13 -28 -152 -28 -131 1 -169 9 -137 29 10 6 4 9 -18 9 l-33 0 0
-235 0 -235 -40 0 c-22 0 -40 -4 -40 -10 0 -5 17 -10 38 -11 29 0 33 -2 17 -8
-29 -12 -337 -13 -355 -1 -11 7 -5 10 25 10 30 0 36 3 25 10 -8 5 -27 10 -42
10 l-28 0 0 235 0 235 -32 0 c-30 0 -31 -1 -12 -15 24 -18 28 -17 -143 -21
-131 -2 -163 1 -163 16 0 5 8 11 18 13 9 3 0 5 -20 6 l-38 1 0 -353z"/>
<path d="M9380 3927 c0 -346 0 -354 23 -397 13 -26 40 -57 65 -75 l44 -30 392
-3 392 -3 131 196 132 195 -90 -2 c-101 -3 -122 -18 -26 -19 43 0 56 -3 42 -9
-29 -12 -667 -12 -685 0 -11 7 1 10 39 10 30 0 51 3 47 8 -7 7 -21 8 -88 11
l-28 1 0 235 0 235 -32 -1 c-18 0 -28 -3 -21 -5 7 -3 10 -11 7 -18 -3 -9 -41
-12 -147 -10 -171 2 -162 1 -147 19 11 13 8 15 -19 15 l-31 0 0 -353z"/>
<path d="M5480 2928 l0 -78 -102 0 c-138 0 -152 -8 -156 -83 l-3 -57 196 0
195 0 0 148 0 147 -65 0 -65 0 0 -77z"/>
<path d="M5685 2825 c-25 -24 -25 -26 -25 -205 0 -234 -12 -220 189 -220 l148
0 42 63 41 62 -143 5 -142 5 -3 88 -3 87 136 0 135 0 0 45 c0 35 -6 52 -25 70
-23 24 -28 25 -175 25 -147 0 -152 -1 -175 -25z"/>
<path d="M6110 2845 c0 -3 25 -94 56 -203 47 -167 60 -201 85 -224 22 -21 39
-28 70 -28 67 0 83 26 150 250 33 106 59 198 59 202 0 5 -30 8 -67 6 l-67 -3
-36 -112 c-19 -61 -38 -114 -41 -117 -3 -4 -21 48 -39 114 l-33 120 -69 0
c-37 0 -68 -2 -68 -5z"/>
<path d="M6570 2625 l0 -225 68 0 67 0 -2 222 -2 223 -66 3 -65 3 0 -226z"/>
<path d="M6805 2838 c-30 -17 -35 -28 -35 -80 l0 -48 196 0 c108 0 194 4 192
8 -1 5 -21 36 -43 70 l-40 62 -125 0 c-74 -1 -133 -5 -145 -12z"/>
<path d="M7225 2838 c-11 -6 -23 -16 -27 -22 -4 -6 -8 -93 -8 -193 0 -238 -12
-223 188 -223 l147 0 43 65 42 65 -145 0 -145 0 0 90 0 90 130 0 130 0 0 48
c0 84 -5 87 -182 90 -103 1 -159 -2 -173 -10z"/>
<path d="M7730 2843 c-27 -10 -40 -36 -40 -85 l0 -48 196 0 c108 0 194 4 192
8 -1 5 -21 36 -43 70 l-40 62 -125 -1 c-69 0 -132 -3 -140 -6z"/>
<path d="M5220 2562 c0 -112 2 -131 18 -145 16 -15 45 -17 195 -17 l177 0 0
145 0 145 -65 0 -65 0 0 -80 0 -80 -65 0 -65 0 0 80 0 80 -65 0 -65 0 0 -128z"/>
<path d="M5836 2663 c71 -111 61 -103 123 -103 75 0 92 14 99 78 l5 52 -123 0
-122 0 18 -27z"/>
<path d="M6770 2565 c0 -169 -4 -165 174 -165 l133 0 42 63 41 62 -130 3 -130
3 0 79 0 80 -65 0 -65 0 0 -125z"/>
<path d="M7350 2684 c0 -3 18 -32 40 -65 l41 -59 58 0 c73 0 91 17 91 83 l0
47 -115 0 c-63 0 -115 -2 -115 -6z"/>
<path d="M7800 2610 l85 -80 -113 0 -112 0 42 -65 43 -65 148 0 c134 0 149 2
167 20 20 20 27 80 14 115 -4 9 -43 47 -87 86 l-80 69 -96 0 -96 -1 85 -79z"/>
<path d="M3400 2671 c0 -8 -64 -18 -137 -22 -16 -1 -23 -7 -23 -20 0 -10 -4
-19 -10 -19 -5 0 -10 5 -10 11 0 6 -4 9 -9 7 -21 -7 -171 -160 -171 -174 0 -8
-4 -13 -9 -10 -11 7 -71 -41 -71 -55 0 -6 5 -7 10 -4 6 3 10 1 10 -4 0 -6 -12
-11 -26 -11 -17 0 -28 -6 -31 -20 -3 -11 -13 -20 -23 -20 -23 0 -35 -29 -15
-36 8 -4 15 -11 15 -16 0 -6 -6 -8 -12 -5 -46 19 -48 19 -48 2 0 -9 -4 -14 -9
-11 -4 3 -22 -9 -38 -27 -16 -17 -67 -67 -113 -110 -65 -61 -80 -81 -69 -88
10 -6 7 -9 -12 -9 -26 0 -88 -54 -72 -62 4 -3 3 -4 -2 -2 -16 3 -87 -64 -75
-71 19 -12 11 -26 -8 -16 -21 11 -42 -3 -42 -27 0 -7 -4 -11 -9 -8 -5 3 -14
-1 -21 -9 -7 -8 -9 -15 -4 -15 5 0 -2 -6 -16 -13 -13 -7 -29 -22 -35 -33 -6
-11 -15 -19 -21 -17 -6 2 -16 -8 -24 -21 -7 -14 -16 -24 -20 -23 -15 5 -98
-86 -93 -102 4 -12 2 -13 -4 -3 -7 10 -13 8 -27 -7 -16 -17 -16 -19 0 -25 9
-4 14 -9 11 -13 -4 -3 -13 0 -22 7 -12 10 -18 10 -31 -1 -29 -24 -42 -64 -49
-161 -6 -90 -5 -100 15 -133 41 -67 131 -86 202 -42 33 20 319 285 613 568 60
58 211 202 335 318 124 117 238 232 253 254 28 41 29 43 22 142 -4 55 -13 108
-20 118 -17 24 -55 51 -55 38z"/>
<path d="M9511 2376 c-19 -20 -25 -43 -33 -117 -6 -65 -5 -101 3 -126 12 -38
107 -139 796 -854 231 -239 406 -413 427 -423 64 -30 131 -14 180 45 l28 33
-7 110 c-4 61 -13 120 -20 131 -7 11 -78 88 -159 170 -80 83 -146 153 -146
158 0 4 -9 7 -21 7 -11 0 -18 4 -14 10 3 5 -15 31 -41 57 -165 171 -249 252
-252 243 -2 -5 -8 -7 -14 -4 -6 4 -5 10 3 15 10 6 -9 31 -73 96 -48 48 -98
101 -113 116 -14 16 -30 25 -37 21 -7 -4 -8 -3 -4 5 6 10 -112 140 -261 287
-31 31 -54 35 -94 19 -10 -3 -20 -2 -23 3 -3 5 -27 7 -52 4 -34 -3 -45 -2 -40
7 13 20 -10 11 -33 -13z"/>
<path d="M6265 1972 c-33 -24 -45 -55 -60 -156 -9 -59 -14 -120 -11 -135 3
-14 8 -363 11 -776 3 -422 10 -765 15 -785 12 -43 65 -97 108 -109 42 -12 88
1 125 36 64 61 60 9 53 873 -7 782 -14 958 -42 1012 -16 31 -42 47 -53 31 -9
-15 -114 -12 -126 4 -5 7 -14 9 -20 5z"/>
</g>
</svg>
